<svg height="493pt" viewBox="-1 0 493 493.61009" width="493pt" xmlns="http://www.w3.org/2000/svg"><path d="m62.695312 369.621094c.699219-.039063 1.429688-.0625 2.191407-.070313 16.628906-.25 55.820312-3.230469 64.140625-3.359375 8.320312-.132812 58.230468-.882812 59.457031 1.46875 1.230469 2.351563 13.113281 13.171875 13.113281 13.171875 4.390625 3.714844 10.714844 4.070313 15.5.867188l7.308594-5.277344c.75-.546875 1.472656-1.128906 2.160156-1.75 3.71875-3.320313 7.160156-7.980469 8.210938-11.28125 1.25-3.941406 5.75-4.320313 10.007812-.832031l38.691406 31.671875c5.222657 3.972656 11.136719 6.945312 17.4375 8.769531l11.011719 2.75 5.390625 1.351562c6.117188 1.296876 12.410156 1.542969 18.609375.730469.308594-.050781.621094-.101562.910157-.160156l7.609374-1.441406c6.535157-1.078125 13.175782-1.363281 19.78125-.851563l20.578126 2.101563c6.621093.5625 13.277343.585937 19.902343.070312l9.769531-.929687c4.273438-.242188 8.554688.222656 12.679688 1.367187 2.132812.527344 4.199219 1.285157 6.167969 2.25l17.710937 9.113281.441406.21875c4.890626 2.511719 10.480469 8.78125 12.417969 13.929688l10.300781 27.378906c1.941407 5.140625 5.941407 23.730469 8.890626 24.339844h-474.78125l9.050781-67.238281c1.160156-9.074219 6.625-17.03125 14.679687-21.371094 1.84375-.933594 3.570313-2.085937 5.140625-3.429687l1.429688-1.269532c4.128906-3.640625 8.109375-11.078125 8.871093-16.53125 0 0 .699219-5.078125 15.21875-5.757812zm0 0" fill="#fedb41"/><path d="m459.117188 336.660156 18.789062 32.53125h-75.128906l18.777344-32.53125 7.410156-12.820312h-13.867188l12.617188-21.859375 12.621094-21.859375 12.621093 21.859375 12.617188 21.859375h-13.859375zm0 0" fill="#46c43d"/><path d="m451.15625 369.980469v49.140625l-.121094.230468-17.710937-9.113281c-1.96875-.964843-4.035157-1.722656-6.167969-2.25v-38.796875h24zm0 0" fill="#00acea"/><path d="m429.054688 28.511719-14 13.058593 2.832031 18.941407-16.75-9.28125-17.140625 8.53125 3.648437-18.792969-13.410156-13.660156 19-2.339844 8.851563-16.96875 8.089843 17.351562zm0 0" fill="#d4e1f4"/><path d="m346.257812 309.851562 23.828126 41.269532h-95.308594l23.828125-41.269532 9.390625-16.269531h-17.582032l16.011719-27.730469 16-27.730468 16.011719 27.730468 16.007812 27.730469h-17.578124zm0 0" fill="#46c43d"/><path d="m352.875 82.5c1.261719 23.554688-14.8125 44.523438-37.886719 49.417969-23.074219 4.898437-46.277343-7.730469-54.691406-29.769531 17.375 4.597656 35.859375-.921876 47.871094-14.289063 12.015625-13.363281 15.535156-32.332031 9.117187-49.121094 20.101563 5.320313 34.480469 22.996094 35.589844 43.761719zm0 0" fill="#d4e1f4"/><path d="m335.925781 352.121094v55.710937c-6.199219.8125-12.492187.566407-18.609375-.730469l-5.390625-1.351562v-54.628906h24zm0 0" fill="#00acea"/><path d="m224.714844 264.019531-85.4375-82.878906-78.519532 80.960937-18.300781 18.867188c-5.957031 6.058594-15.683593 6.175781-21.78125.261719-6.097656-5.914063-6.28125-15.640625-.410156-21.78125l107.582031-110.910157c5.949219-6.101562 15.710938-6.253906 21.847656-.339843l110.921876 107.582031c6.054687 5.953125 6.171874 15.683594.257812 21.78125s-15.640625 6.28125-21.777344.40625zm0 0" fill="#00efd1"/><path d="m226.386719 374.460938.179687.210937c-.6875.621094-1.410156 1.203125-2.160156 1.75l-7.308594 5.277344c-4.785156 3.203125-11.109375 2.847656-15.5-.867188 0 0-11.890625-10.8125-13.113281-13.171875-1.21875-2.359375-51.136719-1.589844-59.457031-1.46875-8.320313.117188-47.511719 3.109375-64.140625 3.359375-.761719.007813-1.492188.03125-2.191407.070313l-1.660156-107.242188-.277344-.277344 78.519532-80.960937 85.4375 82.878906zm-58.011719-55.621094c1.992188-.039063 3.582031-1.675782 3.5625-3.667969l-.363281-23.730469-.359375-23.710937c-.035156-1.996094-1.675782-3.585938-3.667969-3.558594l-28.980469.4375-28.96875.441406c-1.996094.035157-3.585937 1.675781-3.5625 3.667969l.359375 23.722656.363281 23.71875c.03125 1.996094 1.671876 3.585938 3.667969 3.558594l28.980469-.4375zm0 0" fill="#00acea"/><path d="m171.9375 315.171875c.019531 1.992187-1.570312 3.628906-3.5625 3.667969l-28.96875.441406-.019531-1.191406-.402344-26.148438 32.089844-.492187.5-.007813zm0 0" fill="#00efd1"/><path d="m171.214844 267.730469.359375 23.710937-.5.007813-32.089844.492187-.398437-26.140625-.019532-1.191406 28.980469-.4375c1.992187-.027344 3.632813 1.5625 3.667969 3.558594zm0 0" fill="#fedb41"/><path d="m139.386719 318.089844.019531 1.191406-28.980469.4375c-1.996093.027344-3.636719-1.5625-3.667969-3.558594l-.363281-23.71875.5-.011718 32.089844-.488282zm0 0" fill="#fedb41"/><path d="m138.585938 265.800781.398437 26.140625-32.089844.488282-.5.011718-.359375-23.722656c-.023437-1.992188 1.566406-3.632812 3.5625-3.667969l28.96875-.441406zm0 0" fill="#00efd1"/><g fill="#083863"><path d="m98.035156 268.839844.722656 47.4375c.097657 6.34375 5.265626 11.4375 11.609376 11.441406h.179687l57.949219-.878906c6.410156-.105469 11.527344-5.378906 11.4375-11.789063l-.71875-47.441406c-.101563-6.410156-5.378906-11.53125-11.789063-11.4375l-57.953125.878906c-6.410156.105469-11.527344 5.378907-11.4375 11.789063zm65.835938 42.070312-16.589844.25-.175781-11.339844 16.589843-.257812zm-.589844-38.671875.171875 11.328125-16.589844.253906-.175781-11.328124zm-32 39.167969-16.59375.25-.171875-11.339844 16.59375-.253906zm-.585938-38.675781.171876 11.332031-16.589844.253906-.171875-11.332031zm0 0"/><path d="m488.21875 479.082031c-1.210938-2.597656-3.136719-9.5-4.105469-12.972656-.925781-3.316406-1.726562-6.183594-2.429687-8.046875l-10.53125-27.382812c-2.476563-6.351563-6.820313-11.804688-12.457032-15.644532v-37.425781h19.210938c2.890625-.082031 5.523438-1.683594 6.929688-4.210937 1.429687-2.550782 1.429687-5.664063 0-8.21875l-19.265626-33.570313c2.84375.054687 5.492188-1.429687 6.929688-3.882813 1.433594-2.453124 1.433594-5.492187 0-7.945312l-25.242188-43.6875c-1.433593-2.472656-4.074218-3.996094-6.933593-3.992188-2.855469.003907-5.496094 1.535157-6.921875 4.011719l-25.238282 43.722657c-1.429687 2.433593-1.429687 5.453124 0 7.886718 1.441407 2.449219 4.089844 3.933594 6.933594 3.886719h.003906l-19.253906 33.464844c-1.429687 2.574219-1.429687 5.699219 0 8.269531 1.398438 2.539062 4.03125 4.160156 6.929688 4.265625h15.917968v20.988281c-1.734374-.117187-3.476562-.097656-5.207031.058594l-9.65625.929688c-6.082031.46875-12.191406.449218-18.273437-.0625l-20.664063-2.101563c-7.070312-.5625-14.1875-.300781-21.199219.777344v-38.589844h26.390626c2.886718-.109375 5.507812-1.714844 6.921874-4.234375 1.414063-2.523438 1.417969-5.597656.007813-8.117188l-26.296875-45.648437h3.726562c2.859376-.007813 5.5-1.535156 6.929688-4.015625 1.425781-2.476562 1.425781-5.527344 0-8.003906l-32.019531-55.464844c-1.429688-2.476562-4.070313-4.003906-6.929688-4.003906s-5.5 1.527344-6.929687 4.003906l-32.007813 55.457031c-1.429687 2.476563-1.429687 5.53125-.003906 8.007813 1.429687 2.480468 4.070313 4.011718 6.929687 4.019531h3.726563l-26.292969 45.523437c-1.429687 2.5625-1.429687 5.679688 0 8.238282 1.402344 2.535156 4.035156 4.144531 6.929688 4.238281h28.917968v35.902344l-.945312-.265625c-5.140625-1.542969-9.96875-3.980469-14.265625-7.199219l-38.65625-31.667969c-4.535156-3.714844-9.785156-5.054687-14.429687-3.675781-.457032.136719-.902344.300781-1.339844.492187l-1.054688-69.984374.523438.503906c9.300781 9.019531 24.148437 8.792968 33.167968-.507813 9.019532-9.300781 8.789063-24.152343-.511718-33.167969l-110.921875-107.585937c-9.308594-8.988281-24.132813-8.757813-33.15625.515625l-41.332031 42.609375-.589844-38.550781c-.066406-4.417969-3.703125-7.945313-8.121094-7.878906-4.417969.070312-7.945312 3.707031-7.878906 8.125l.800781 52.289062c.011719.675781.113281 1.34375.292969 1.992188l-50.757813 52.328124c-6.558593 6.757813-8.433593 16.785157-4.761719 25.460938 3.671876 8.671875 12.175782 14.304688 21.59375 14.300781h.367188c6.222656-.070312 12.15625-2.628906 16.480469-7.101562l5.128906-5.285157 1.257813 81.269532c-12.28125 2.433594-14.625 8.800781-15.035157 11.753906-.929687 4.398438-3.101562 8.441406-6.253906 11.648438l-1.441406 1.28125c-1.089844.90625-2.28125 1.6875-3.550781 2.324218-10.339844 5.546875-17.367188 15.738282-18.878907 27.375l-9.050781 67.238282c-.3046875 2.347656.386719 4.714843 1.90625 6.53125 1.5 1.789062 3.691406 2.855468 6.023438 2.929687h474.78125c4.140624-.089844 7.558593-3.257813 7.957031-7.378906.273437-2.699219-.78125-5.363281-2.824219-7.148438zm-71.585938-117.472656 19.257813-33.613281c1.429687-2.570313 1.429687-5.699219 0-8.269532-1.414063-2.503906-4.050781-4.070312-6.925781-4.117187h-.011719l11.382813-19.71875 11.382812 19.71875c-2.875.046875-5.511719 1.613281-6.925781 4.117187-1.429688 2.570313-1.429688 5.695313 0 8.265626l19.253906 33.617187zm26.0625 16v28.6875l-6.167968-3.167969c-.566406-.378906-1.179688-.667968-1.832032-.863281v-24.65625zm-154.0625-34 26.292969-45.785156c1.429688-2.511719 1.429688-5.59375 0-8.105469-1.417969-2.503906-4.054687-4.066406-6.929687-4.109375h-3.722656l18.15625-31.457031 18.160156 31.457031h-3.722656c-2.855469-.003906-5.5 1.515625-6.929688 3.984375-1.429688 2.5625-1.429688 5.679688 0 8.238281l26.292969 45.777344zm39.0625 16v40.679687c-2.6875-.007812-5.363281-.277343-8-.800781v-39.878906zm-290.980468-84.210937c-2.871094 2.9375-7.574219 3-10.519532.140624-2.949218-2.855468-3.03125-7.558593-.1875-10.519531l107.578126-110.910156c2.867187-2.949219 7.582031-3.023437 10.539062-.167969l110.917969 107.578125c2.9375 2.871094 3 7.574219.140625 10.523438-2.855469 2.945312-7.558594 3.03125-10.519532.183593l-14.378906-13.949218-85.4375-82.878906c-3.171875-3.078126-8.238281-3-11.316406.171874zm181.617187 95.539062-5.917969 4.277344c-1.714843.976562-3.839843.859375-5.4375-.300782-4.65625-4.234374-10.332031-9.710937-11.617187-11.347656-2.609375-4.46875-7.78125-4.742187-14.867187-5.117187-4.480469-.238281-10.675782-.386719-18.40625-.441407-13.527344-.101562-28.015626.109376-32.773438.179688l-.410156.007812c-3.621094.054688-12.039063.578126-22.703125 1.238282-11.675781.722656-25.699219 1.59375-35.628907 1.960937l-1.492187-96.382812 70.371094-72.558594 77.316406 75zm-200.878906 106.671875 7.832031-58.367187c.808594-6.53125 4.703125-12.28125 10.472656-15.453126 2.417969-1.25 4.679688-2.785156 6.730469-4.578124l1.40625-1.273438c4.921875-4.335938 9.375-12.109375 11.023438-18.941406 2.648437-.910156 5.429687-1.375 8.230469-1.386719.589843-.03125 1.203124-.050781 1.859374-.058594 9.949219-.152343 27.824219-1.261719 42.1875-2.152343 10.039063-.621094 18.707032-1.160157 21.945313-1.210938l.398437-.007812c37.8125-.546876 50.300782.117187 54.328126.539062 3.910156 4.214844 8.03125 8.230469 12.34375 12.027344 7.207031 6.238281 17.710937 6.828125 25.566406 1.4375l7.308594-5.28125c.972656-.703125 1.910156-1.460938 2.800781-2.265625 3.539062-3.167969 6.539062-6.890625 8.875-11.027344l37.644531 30.816406c6.132812 4.726563 13.117188 8.238281 20.570312 10.339844l8.832032 2.210937c1.242187.75 2.664062 1.148438 4.117187 1.148438.136719 0 .269531-.015625.398438-.019531l3.035156.757812c6.371094 1.394531 12.921875 1.789063 19.414063 1.167969.382812.058594.765624.089844 1.152343.09375 1.191407 0 2.367188-.269531 3.441407-.785156l6.574218-1.246094c5.773438-.925781 11.636719-1.179688 17.46875-.75l20.578125 2.101562c7.144531.617188 14.324219.644532 21.472657.074219l9.773437-.929687c2.917969-.144532 5.84375.140625 8.683594.847656.777343.347656 1.605469.566406 2.457031.648438 1.128906.328124 2.230469.753906 3.289062 1.273437l17.710938 9.109375.082031.042969.363281.179687c3.738282 2.304688 6.722657 5.652344 8.585938 9.628906l10.300781 27.390626c.453125 1.199218 1.234375 4.195312 1.988281 6.898437.683594 2.453125 1.320313 5.007813 1.941407 7.007813zm0 0"/><path d="m409.335938 4.617188c-1.285157-2.757813-4.027344-4.5468755-7.070313-4.61328175-3.046875-.07031245-5.863281 1.59765575-7.273437 4.29687475l-6.90625 13.242188-14.828126 1.828125c-3.023437.371094-5.570312 2.425781-6.574218 5.300781s-.289063 6.070313 1.84375 8.242187l10.46875 10.660157-2.847656 14.660156c-.582032 2.988281.585937 6.046875 3.007812 7.890625s5.683594 2.152344 8.410156.796875l13.375-6.65625 13.066406 7.246094c2.664063 1.472656 5.9375 1.308593 8.4375-.425781 2.503907-1.738282 3.800782-4.742188 3.351563-7.753907l-2.207031-14.78125 10.921875-10.191406c2.226562-2.078125 3.082031-5.238281 2.203125-8.15625-.878906-2.914063-3.335938-5.082031-6.339844-5.582031l-14.726562-2.464844zm.261718 31.101562c-1.925781 1.796875-2.84375 4.425781-2.453125 7.03125l.433594 2.902344-2.566406-1.421875c-2.300781-1.277344-5.085938-1.335938-7.441407-.164063l-2.632812 1.308594.5625-2.882812c.5-2.582032-.300781-5.25-2.144531-7.128907l-2.058594-2.101562 2.917969-.359375c2.609375-.320313 4.898437-1.90625 6.113281-4.238282l1.355469-2.601562 1.242187 2.660156c1.113281 2.390625 3.332031 4.074219 5.929688 4.511719l2.882812.480469zm0 0"/><path d="m274.664062 95.679688c-4.148437.222656-8.308593-.207032-12.328124-1.265626-2.898438-.765624-5.984376.15625-7.992188 2.390626-2.003906 2.230468-2.59375 5.394531-1.523438 8.199218 8.21875 21.664063 28.988282 35.976563 52.15625 35.945313 1.011719 0 2.023438-.027344 3.042969-.082031 27.476563-1.472657 49.792969-22.722657 52.613281-50.09375 2.816407-27.371094-14.703124-52.722657-41.304687-59.761719-2.902344-.769531-5.988281.152343-7.992187 2.386719-2.007813 2.234374-2.59375 5.402343-1.523438 8.203124 4.558594 11.917969 3.140625 25.292969-3.8125 35.988282-6.949219 10.695312-18.597656 17.421875-31.335938 18.097656zm54.03125-42.8125v-.015626c0-.070312-.171874-.140624-.179687-.214843 12.375 8.980469 18.542969 24.234375 15.882813 39.292969-2.660157 15.058593-13.675782 27.277343-28.378907 31.480468-14.703125 4.199219-30.511719-.359375-40.722656-11.738281.074219 0 .3125-.007813.386719-.011719 30.773437-1.644531 54.011718-28.019531 53.011718-58.792968zm0 0"/></g></svg>